<svg width="189" height="50" viewBox="0 0 189 50" fill="none" xmlns="http://www.w3.org/2000/svg">
<path d="M10.4102 48.1084C9.39583 48.1084 8.25781 47.9785 6.99609 47.7188C5.73438 47.459 4.62109 47.0879 3.65625 46.6055L4.6582 42.7461C5.52409 43.1172 6.43945 43.4079 7.4043 43.6182C8.38151 43.8408 9.29069 43.9521 10.1318 43.9521C11.5791 43.9521 12.6367 43.5501 13.3047 42.7461C13.985 41.9421 14.3252 40.8226 14.3252 39.3877V38.0703C13.7314 38.8249 13.0326 39.4001 12.2285 39.7959C11.4245 40.1917 10.5029 40.3896 9.46387 40.3896C7.83105 40.3896 6.42708 39.9814 5.25195 39.165C4.07682 38.3363 3.18001 37.1797 2.56152 35.6953C1.94303 34.2109 1.63379 32.4854 1.63379 30.5186V30.1289C1.63379 28.0137 1.94303 26.1644 2.56152 24.5811C3.18001 22.9977 4.06445 21.7669 5.21484 20.8887C6.36523 19.998 7.74447 19.5527 9.35254 19.5527C10.5524 19.5527 11.5853 19.8063 12.4512 20.3135C13.3171 20.8083 14.0531 21.5195 14.6592 22.4473L15.0488 19.9238H19.7617V39.4062C19.7617 41.1751 19.3844 42.709 18.6299 44.0078C17.8877 45.3066 16.8177 46.3148 15.4199 47.0322C14.0221 47.7497 12.3522 48.1084 10.4102 48.1084ZM10.9854 36.1777C11.7523 36.1777 12.4141 36.0293 12.9707 35.7324C13.5273 35.4232 13.9788 34.9779 14.3252 34.3965V25.6758C13.9788 25.0697 13.5212 24.5996 12.9521 24.2656C12.3955 23.9316 11.7461 23.7646 11.0039 23.7646C10.0762 23.7646 9.32161 24.0368 8.74023 24.5811C8.15885 25.113 7.7321 25.8551 7.45996 26.8076C7.18783 27.7477 7.05176 28.8548 7.05176 30.1289V30.5186C7.05176 32.2751 7.35482 33.6605 7.96094 34.6748C8.56706 35.6768 9.5752 36.1777 10.9854 36.1777ZM19.0752 23.8389L16.7188 19.9238H22.1182V23.1895L19.0752 23.8389ZM33.1396 40.3896C31.1605 40.3896 29.4596 39.9567 28.0371 39.0908C26.6146 38.2249 25.526 37.0251 24.7715 35.4912C24.0169 33.945 23.6396 32.1699 23.6396 30.166V29.7764C23.6396 27.7848 24.0169 26.0221 24.7715 24.4883C25.526 22.9421 26.6084 21.736 28.0186 20.8701C29.4411 19.9919 31.1357 19.5527 33.1025 19.5527C35.0941 19.5527 36.7949 19.9919 38.2051 20.8701C39.6152 21.736 40.6976 22.9359 41.4521 24.4697C42.2067 26.0036 42.584 27.7725 42.584 29.7764V30.166C42.584 32.1699 42.2067 33.945 41.4521 35.4912C40.6976 37.0251 39.6152 38.2249 38.2051 39.0908C36.7949 39.9567 35.1064 40.3896 33.1396 40.3896ZM33.1396 36.2334C34.0798 36.2334 34.8467 35.9798 35.4404 35.4727C36.0342 34.9655 36.4733 34.2604 36.7578 33.3574C37.0423 32.4421 37.1846 31.3783 37.1846 30.166V29.7764C37.1846 28.5889 37.0423 27.5436 36.7578 26.6406C36.4733 25.7253 36.028 25.014 35.4219 24.5068C34.8281 23.9873 34.055 23.7275 33.1025 23.7275C32.1748 23.7275 31.4079 23.9873 30.8018 24.5068C30.1956 25.014 29.7503 25.7253 29.4658 26.6406C29.1937 27.5436 29.0576 28.5889 29.0576 29.7764V30.166C29.0576 31.3783 29.1937 32.4421 29.4658 33.3574C29.7503 34.2728 30.1956 34.984 30.8018 35.4912C31.4079 35.986 32.1872 36.2334 33.1396 36.2334ZM63.5137 40V36.7529L66.4268 36.1406V16.8809L63.5137 16.25V12.9844H66.4268H75.3701C77.7822 12.9844 79.9098 13.5534 81.7529 14.6914C83.596 15.8171 85.0309 17.3818 86.0576 19.3857C87.0967 21.3773 87.6162 23.6657 87.6162 26.251V26.752C87.6162 29.3125 87.1029 31.5947 86.0762 33.5986C85.0618 35.5902 83.6393 37.1549 81.8086 38.293C79.9779 39.431 77.8564 40 75.4443 40H63.5137ZM71.8447 35.8623H75.166C76.6628 35.8623 77.9307 35.4727 78.9697 34.6934C80.0088 33.9017 80.8005 32.8193 81.3447 31.4463C81.9014 30.0732 82.1797 28.5085 82.1797 26.752V26.2324C82.1797 24.4512 81.9014 22.8802 81.3447 21.5195C80.8005 20.1465 80.0088 19.0765 78.9697 18.3096C77.9307 17.5303 76.6628 17.1406 75.166 17.1406H71.8447V35.8623ZM99.6768 40.3896C97.6976 40.3896 95.9967 39.9567 94.5742 39.0908C93.1517 38.2249 92.0632 37.0251 91.3086 35.4912C90.554 33.945 90.1768 32.1699 90.1768 30.166V29.7764C90.1768 27.7848 90.554 26.0221 91.3086 24.4883C92.0632 22.9421 93.1455 21.736 94.5557 20.8701C95.9782 19.9919 97.6729 19.5527 99.6396 19.5527C101.631 19.5527 103.332 19.9919 104.742 20.8701C106.152 21.736 107.235 22.9359 107.989 24.4697C108.744 26.0036 109.121 27.7725 109.121 29.7764V30.166C109.121 32.1699 108.744 33.945 107.989 35.4912C107.235 37.0251 106.152 38.2249 104.742 39.0908C103.332 39.9567 101.644 40.3896 99.6768 40.3896ZM99.6768 36.2334C100.617 36.2334 101.384 35.9798 101.978 35.4727C102.571 34.9655 103.01 34.2604 103.295 33.3574C103.579 32.4421 103.722 31.3783 103.722 30.166V29.7764C103.722 28.5889 103.579 27.5436 103.295 26.6406C103.01 25.7253 102.565 25.014 101.959 24.5068C101.365 23.9873 100.592 23.7275 99.6396 23.7275C98.7119 23.7275 97.945 23.9873 97.3389 24.5068C96.7327 25.014 96.2874 25.7253 96.0029 26.6406C95.7308 27.5436 95.5947 28.5889 95.5947 29.7764V30.166C95.5947 31.3783 95.7308 32.4421 96.0029 33.3574C96.2874 34.2728 96.7327 34.984 97.3389 35.4912C97.945 35.986 98.7243 36.2334 99.6768 36.2334ZM111.348 40V36.7529L113.945 36.1963V23.7461L111.069 23.1895V19.9238H118.992L119.233 22.7998C119.901 21.7731 120.724 20.9753 121.701 20.4062C122.691 19.8372 123.816 19.5527 125.078 19.5527C127.07 19.5527 128.628 20.1898 129.754 21.4639C130.88 22.738 131.442 24.7357 131.442 27.457V36.1963L134.04 36.7529V40H123.687V36.7529L126.006 36.1963V27.4756C126.006 26.1273 125.74 25.1748 125.208 24.6182C124.676 24.0492 123.884 23.7646 122.833 23.7646C122.054 23.7646 121.373 23.9316 120.792 24.2656C120.223 24.5872 119.747 25.0511 119.363 25.6572V36.1963L121.553 36.7529V40H111.348ZM142.538 40.3896C140.547 40.3896 138.963 39.8577 137.788 38.7939C136.613 37.7178 136.025 36.2581 136.025 34.415C136.025 33.1533 136.366 32.0462 137.046 31.0938C137.739 30.1413 138.753 29.3929 140.089 28.8486C141.437 28.3044 143.095 28.0322 145.062 28.0322H147.715V26.5479C147.715 25.583 147.43 24.8037 146.861 24.21C146.305 23.6038 145.464 23.3008 144.338 23.3008C143.757 23.3008 143.237 23.375 142.779 23.5234C142.322 23.6595 141.901 23.8574 141.518 24.1172L141.091 26.7705H137.194L137.12 21.5566C138.172 20.9629 139.31 20.4805 140.534 20.1094C141.759 19.7383 143.126 19.5527 144.635 19.5527C147.257 19.5527 149.329 20.165 150.851 21.3896C152.372 22.6019 153.133 24.3398 153.133 26.6035V34.8789C153.133 35.151 153.133 35.4232 153.133 35.6953C153.145 35.9551 153.17 36.2087 153.207 36.4561L155.304 36.7529V40H148.587C148.451 39.6536 148.315 39.2826 148.179 38.8867C148.043 38.4909 147.944 38.0951 147.882 37.6992C147.239 38.5156 146.478 39.1712 145.6 39.666C144.734 40.1484 143.713 40.3896 142.538 40.3896ZM143.985 36.3818C144.74 36.3818 145.457 36.2148 146.138 35.8809C146.818 35.5345 147.344 35.083 147.715 34.5264V31.3535H145.043C143.855 31.3535 142.952 31.6257 142.334 32.1699C141.728 32.7142 141.425 33.3698 141.425 34.1367C141.425 34.8542 141.647 35.4108 142.093 35.8066C142.55 36.1901 143.181 36.3818 143.985 36.3818ZM164.451 40.3896C162.583 40.3896 161.142 39.8763 160.128 38.8496C159.126 37.8229 158.625 36.1963 158.625 33.9697V23.7275H155.86V19.9238H158.625V15.0068H164.024V19.9238H167.717V23.7275H164.024V33.9512C164.024 34.7305 164.185 35.2871 164.507 35.6211C164.841 35.9551 165.292 36.1221 165.861 36.1221C166.171 36.1221 166.492 36.1035 166.826 36.0664C167.173 36.0169 167.469 35.9674 167.717 35.918L168.181 39.833C167.624 39.9938 167.018 40.1237 166.362 40.2227C165.719 40.334 165.082 40.3896 164.451 40.3896ZM179.388 40.3896C177.47 40.3896 175.794 39.9691 174.359 39.1279C172.924 38.2744 171.811 37.1055 171.02 35.6211C170.24 34.1367 169.851 32.4421 169.851 30.5371V29.7949C169.851 27.8034 170.222 26.0407 170.964 24.5068C171.706 22.9606 172.751 21.7484 174.1 20.8701C175.46 19.9795 177.062 19.5404 178.905 19.5527C180.724 19.5527 182.251 19.9115 183.488 20.6289C184.725 21.3464 185.665 22.3792 186.309 23.7275C186.952 25.0758 187.273 26.7087 187.273 28.626V31.5762H175.473L175.436 31.6875C175.51 32.5658 175.726 33.3512 176.085 34.0439C176.456 34.7243 176.976 35.2624 177.644 35.6582C178.312 36.0417 179.122 36.2334 180.074 36.2334C181.064 36.2334 181.985 36.1097 182.839 35.8623C183.705 35.6025 184.546 35.2253 185.362 34.7305L186.828 38.0703C185.999 38.7383 184.954 39.2949 183.692 39.7402C182.443 40.1732 181.008 40.3896 179.388 40.3896ZM175.51 27.9951H182.208V27.5127C182.208 26.6963 182.097 25.9974 181.874 25.416C181.664 24.8223 181.317 24.3646 180.835 24.043C180.365 23.7214 179.753 23.5605 178.998 23.5605C178.281 23.5605 177.674 23.7523 177.18 24.1357C176.685 24.5068 176.295 25.0202 176.011 25.6758C175.739 26.3314 175.553 27.0736 175.454 27.9023L175.51 27.9951Z" fill="white"/>
<path d="M54.4862 32C53.6906 32 52.9275 31.9473 52.3649 31.8536C51.8023 31.7598 51.4862 31.6326 51.4862 31.5C51.4862 31.3674 51.8023 31.2402 52.3649 31.1464C52.9275 31.0527 53.6906 31 54.4862 31C55.2819 31 56.0449 31.0527 56.6075 31.1464C57.1701 31.2402 57.4862 31.3674 57.4862 31.5C57.4862 31.6326 57.1701 31.7598 56.6075 31.8536C56.0449 31.9473 55.2819 32 54.4862 32Z" fill="#357538" stroke="#357538" stroke-width="15" stroke-linecap="round" stroke-linejoin="round"/>
</svg>
